<svg width="198" height="47" viewBox="0 0 198 47" fill="none" xmlns="http://www.w3.org/2000/svg">
<path d="M69.1127 19.1835V22.9277H67.4829V20.7568H60.3196V22.9277H58.662V19.1835H59.731C59.9448 18.3433 60.0503 17.0126 60.0503 15.0305V10.4461H67.9327V19.1835H69.1127ZM66.2529 19.2117V11.994H61.7106V15.0333C61.7106 16.6066 61.5773 18.1262 61.3635 19.2117H66.2529Z" fill="black"/>
<path d="M74.2436 19.5109C75.4208 19.5109 76.1677 19.0485 76.6231 18.4536L77.7198 19.4319C77.0507 20.2467 75.929 20.898 74.2464 20.898C71.6004 20.898 70.1566 19.1077 70.1566 16.6914C70.1566 14.1934 71.7587 12.4848 74.1131 12.4848C76.4676 12.4848 77.9891 14.1398 77.9891 16.6914C77.9891 16.8803 77.9891 17.0157 77.9364 17.2074H71.7642C71.9447 18.6143 72.8276 19.5109 74.2436 19.5109ZM71.7864 15.9556H76.3565C76.1427 14.6248 75.3153 13.8382 74.1103 13.8382C72.8554 13.8382 72.0252 14.653 71.7864 15.9556Z" fill="black"/>
<path d="M87.607 16.6886C87.607 19.1838 86.1632 20.8952 84.1059 20.8952C83.0091 20.8952 82.0762 20.461 81.4599 19.6744V23.475H79.855V12.6202H81.2433L81.3516 13.8945C81.9929 12.998 82.9536 12.4848 84.1031 12.4848C86.216 12.482 87.607 14.137 87.607 16.6886ZM85.9772 16.6886C85.9772 14.98 85.0943 13.8664 83.6783 13.8664C82.2623 13.8664 81.3544 14.98 81.3544 16.6886C81.3544 18.3972 82.2623 19.5109 83.6783 19.5109C85.0943 19.5109 85.9772 18.3972 85.9772 16.6886Z" fill="black"/>
<path d="M96.3726 16.9336L95.2759 18.0445V20.7568H93.6738V18.0727L92.5521 16.9336L90.0949 20.7596H88.1431L91.4304 15.8482L88.2763 12.6199H90.3087L93.6766 16.2288V12.6199H95.2787V16.2034L98.6465 12.6199H100.651L97.5248 15.8228L100.784 20.7624H98.8603L96.3726 16.9336Z" fill="black"/>
<path d="M108.877 19.347V20.7567C108.797 20.7849 108.583 20.8103 108.316 20.8103C107.328 20.8103 106.873 20.4579 106.767 19.5077C106.206 20.3479 105.137 20.8921 103.96 20.8921C102.383 20.8921 101.342 19.9165 101.342 18.504C101.342 16.4966 103.238 16.0624 104.79 15.8171C105.992 15.6536 106.581 15.5464 106.581 14.9205C106.581 14.2692 105.912 13.835 104.899 13.835C103.991 13.835 103.135 14.241 102.494 14.9205L101.506 13.8632C102.441 12.9666 103.591 12.4789 104.979 12.4789C106.903 12.4789 108.08 13.4826 108.08 15.1658V18.8282C108.08 19.1807 108.241 19.3442 108.589 19.3442H108.877V19.347ZM106.526 17.6638V16.6065C106.231 16.7954 105.751 16.8772 104.976 17.0125C103.96 17.1761 102.919 17.3396 102.919 18.3969C102.919 19.1581 103.399 19.5641 104.229 19.5641C105.457 19.5641 106.526 18.6957 106.526 17.6638Z" fill="black"/>
<path d="M117.323 18.5321C117.323 19.9983 116.282 20.7567 114.544 20.7567H110.668V12.617H114.25C116.013 12.617 117.11 13.2683 117.11 14.7344C117.11 15.6309 116.682 16.254 115.96 16.5783C116.84 16.9053 117.323 17.5566 117.323 18.5321ZM112.218 15.9834H114.247C115.155 15.9834 115.53 15.6845 115.53 14.9261C115.53 14.2748 115.075 13.9224 114.328 13.9224H112.218V15.9834ZM115.719 18.3432C115.719 17.6384 115.186 17.2042 114.275 17.2042H112.218V19.4569H114.383C115.238 19.4569 115.719 19.0481 115.719 18.3432Z" fill="black"/>
<path d="M126.408 12.617V20.7595H124.803V17.3395H120.902V20.7595H119.3V12.617H120.902V15.8734H124.803V12.617H126.408Z" fill="black"/>
<path d="M128.974 9.84842H130.737V11.4781H128.974V9.84842ZM129.054 12.6171H130.656V20.7596H129.054V12.6171Z" fill="black"/>
<path d="M144.689 20.7595H143.087V14.0549H139.186V20.7567H137.581V12.617H144.689V20.7595Z" fill="black"/>
<path d="M146.61 16.6885C146.61 14.1905 148.268 12.4819 150.672 12.4819C153.132 12.4819 154.734 14.1369 154.734 16.6885C154.734 19.1837 153.077 20.8951 150.672 20.8951C148.215 20.8951 146.61 19.2401 146.61 16.6885ZM153.104 16.6885C153.104 14.9799 152.141 13.8663 150.672 13.8663C149.203 13.8663 148.24 14.9799 148.24 16.6885C148.24 18.3971 149.203 19.5108 150.672 19.5108C152.144 19.5108 153.104 18.3971 153.104 16.6885Z" fill="black"/>
<path d="M156.073 16.6885C156.073 14.1905 157.702 12.4819 160.082 12.4819C161.82 12.4819 163.208 13.3785 163.664 14.9235L162.139 15.4113C161.792 14.4612 161.07 13.8634 160.082 13.8634C158.613 13.8634 157.702 14.9771 157.702 16.6857C157.702 18.3943 158.61 19.5079 160.082 19.5079C161.045 19.5079 161.792 18.9102 162.139 17.9601L163.664 18.4478C163.208 19.9957 161.792 20.8895 160.082 20.8895C157.702 20.8951 156.073 19.1837 156.073 16.6885Z" fill="black"/>
<path d="M172.292 20.7595H170.69V14.0549H167.375V16.9871C167.375 19.9447 166.762 20.8131 165.21 20.8131C164.915 20.8131 164.649 20.7849 164.463 20.7595V19.268H164.89C165.584 19.268 165.798 19.0791 165.798 16.8264V12.617H172.292V20.7595Z" fill="black"/>
<path d="M182.154 12.617L179.189 21.0555C178.681 22.5216 177.801 23.6071 176.437 23.6071C174.835 23.6071 174.139 22.4681 174.139 21.2191L175.607 20.9738C175.58 21.5969 175.768 22.141 176.462 22.141C176.89 22.141 177.209 21.8422 177.504 21.3008L173.736 12.617H175.499L178.306 19.4287L180.497 12.617H182.154Z" fill="black"/>
<path d="M189.344 14.1085H185.173V20.7567H183.569V12.617H189.341V14.1085H189.344Z" fill="black"/>
<path d="M198 12.617V20.7595H196.423V14.8415L192.522 20.7595H190.864V12.617H192.441V18.4786L196.342 12.617H198Z" fill="black"/>
<path d="M58.9039 33.0188C58.9039 30.5207 60.5615 28.8122 62.9659 28.8122C65.4259 28.8122 67.0279 30.4672 67.0279 33.0188C67.0279 35.514 65.3704 37.2253 62.9659 37.2253C60.5087 37.2253 58.9039 35.5703 58.9039 33.0188ZM65.3981 33.0188C65.3981 31.3102 64.4375 30.1965 62.9659 30.1965C61.4944 30.1965 60.5337 31.3102 60.5337 33.0188C60.5337 34.7273 61.4944 35.841 62.9659 35.841C64.4375 35.841 65.3981 34.7273 65.3981 33.0188Z" fill="black"/>
<path d="M76.0622 28.9471V37.0897H74.4574V33.6697H70.5564V37.0897H68.9543V28.9471H70.5564V32.2036H74.4574V28.9471H76.0622Z" fill="black"/>
<path d="M85.4941 37.0899H83.8893V30.3881H80.5741V33.3203C80.5741 36.2779 79.9605 37.1463 78.4085 37.1463C78.1142 37.1463 77.8476 37.1181 77.6588 37.0927V35.6012H78.0864C78.7805 35.6012 78.9943 35.4123 78.9943 33.1596V28.953H85.4885V37.0899H85.4941Z" fill="black"/>
<path d="M94.8203 35.6773V37.087C94.7398 37.1152 94.526 37.1406 94.2595 37.1406C93.271 37.1406 92.8157 36.7881 92.7102 35.838C92.1493 36.6782 91.0804 37.2223 89.9031 37.2223C88.3261 37.2223 87.2849 36.2468 87.2849 34.8343C87.2849 32.8268 89.1813 32.3926 90.7333 32.1473C91.9355 31.9838 92.5241 31.8767 92.5241 31.2507C92.5241 30.5995 91.855 30.1653 90.8416 30.1653C89.9337 30.1653 89.0785 30.5713 88.4372 31.2507L87.4487 30.1935C88.3844 29.2969 89.5339 28.8091 90.9221 28.8091C92.8462 28.8091 94.0235 29.8128 94.0235 31.496V35.1585C94.0235 35.5109 94.1845 35.6745 94.5316 35.6745H94.8203V35.6773ZM92.4686 33.9941V32.9368C92.1743 33.1257 91.694 33.2074 90.9193 33.3428C89.9031 33.5063 88.862 33.6698 88.862 34.7271C88.862 35.4884 89.3423 35.8944 90.1725 35.8944C91.3997 35.8944 92.4686 35.026 92.4686 33.9941Z" fill="black"/>
<path d="M103.747 28.947V37.0895H102.17V31.1743L98.2688 37.0895H96.6113V28.947H98.1883V34.8086L102.089 28.947H103.747ZM97.733 26.2601L98.9879 26.043C99.0685 26.7224 99.496 27.1003 100.162 27.1003C100.829 27.1003 101.259 26.7196 101.337 26.043L102.592 26.2601C102.459 27.4809 101.551 28.1857 100.16 28.1857C98.7686 28.1857 97.869 27.4809 97.733 26.2601Z" fill="black"/>
<path d="M113.368 28.9471V37.0897H111.763V33.6697H107.862V37.0897H106.26V28.9471H107.862V32.2036H111.763V28.9471H113.368Z" fill="black"/>
<path d="M23.1421 47C33.2818 47 38.9209 47 42.6025 43.2614C46.2841 39.5229 46.2841 33.7994 46.2841 23.5C46.2841 13.2006 46.2841 7.47714 42.6025 3.73857C38.9209 0 33.2846 0 23.1421 0C12.9995 0 7.36326 0 3.68163 3.73857C0 7.47714 0 13.2034 0 23.5C0 33.7966 0 39.5229 3.68163 43.2614C7.36326 47 13.0023 47 23.1421 47Z" fill="black"/>
<path d="M31.8328 18.8535C30.0837 18.8535 28.787 20.2237 28.787 21.9154C28.787 23.2969 29.7422 24.3739 30.9527 24.6925L28.4705 28.5523H30.7889L32.899 24.9604H34.4788V28.5523H36.4141V18.8535H31.8328ZM32.0994 23.3166C31.3025 23.3166 30.8111 22.6823 30.8111 21.9605C30.8111 21.2387 31.2609 20.5508 32.0994 20.5508H34.4816V23.3166H32.0994Z" fill="white"/>
<path d="M21.2406 18.8535L20.5992 20.6466L23.2341 20.6325L21.6737 26.4434C21.2294 28.1379 22.9675 29.4179 24.453 28.4226L27.8264 26.0994L26.8324 24.6164L23.4617 26.9847L25.7329 18.8535H21.2406Z" fill="white"/>
<path d="M26.2131 16.381C26.2131 17.0577 25.9188 17.6047 24.8749 17.6047C23.8781 17.6047 23.5366 17.0549 23.5366 16.381C23.5366 15.7044 23.8781 15.1574 24.8749 15.1574C25.9188 15.1574 26.2131 15.7044 26.2131 16.381Z" fill="white"/>
<path d="M18.0444 26.7565V16.6009H10.6201V22.0227C10.6201 24.5743 9.89266 26.1504 9.4623 26.7565H8.58215V31.1915H10.4646V28.5694H17.503V31.1915H19.3855V26.7565H18.0444ZM12.4915 21.9127V18.4026H16.1092V26.7565H11.4364C11.864 26.0517 12.4915 24.2585 12.4915 21.9127Z" fill="white"/>
</svg>
