<svg width="166" height="52" viewBox="0 0 166 52" fill="none" xmlns="http://www.w3.org/2000/svg">
<path d="M158 1H8C4.13401 1 1 4.13401 1 8V44C1 47.866 4.13401 51 8 51H158C161.866 51 165 47.866 165 44V8C165 4.13401 161.866 1 158 1Z" fill="black" stroke="#4C4C4C" stroke-width="2"/>
<path d="M33.6669 9H19.2664C14.1487 9 10 13.1487 10 18.2664V32.6669C10 37.7848 14.1487 41.9333 19.2664 41.9333H33.6669C38.7848 41.9333 42.9333 37.7848 42.9333 32.6669V18.2664C42.9333 13.1487 38.7848 9 33.6669 9Z" fill="#C8102E"/>
<path d="M16.5209 25.4668H17.3945V29.7759H16.5209V28.0252H14.5484V29.7759H13.6748V25.4668H14.5484V27.2001H16.5209V25.4668ZM21.4436 27.9316C21.4436 28.6249 21.0969 29.0063 20.466 29.0063C19.8351 29.0063 19.4815 28.6249 19.4815 27.8935V25.4668H18.6079V27.9281C18.6079 29.138 19.2804 29.8313 20.4521 29.8313C21.6239 29.8313 22.3172 29.138 22.3172 27.89V25.4668H21.4436V27.9316ZM31.5385 28.4273L30.5609 25.4668H29.8433L28.8727 28.4308L27.9193 25.4668H26.9903L28.4913 29.7759H29.2159L30.19 26.9471L31.1676 29.7759H31.8991L33.4001 25.4668H32.4919L31.5385 28.4273ZM34.9636 27.9177H36.5548V27.1377H34.9636V26.2572H37.2724V25.4668H34.1039V29.7655H37.3556V28.9889H34.9636V27.9177ZM38.3956 29.7655H39.2588V25.4668H38.3956V29.7655ZM24.0436 28.8745L23.6519 29.7689H22.7609L24.6433 25.4668H25.4129L27.3023 29.7689H26.4009L26.03 28.878L24.0436 28.8745ZM24.3695 28.098H25.6833L25.0247 26.5588L24.3695 28.098Z" fill="white"/>
<path d="M26.4669 19.9847C25.0136 19.9838 23.62 19.406 22.5924 18.3784C21.5647 17.3508 20.987 15.9572 20.9861 14.5039H21.7592C21.7592 15.7525 22.2551 16.9499 23.138 17.8328C24.0209 18.7157 25.2183 19.2116 26.4669 19.2116C27.7154 19.2116 28.9129 18.7157 29.7958 17.8328C30.6786 16.9499 31.1746 15.7525 31.1746 14.5039H31.9477C31.9467 15.9572 31.369 17.3508 30.3414 18.3784C29.3137 19.406 27.9202 19.9838 26.4669 19.9847Z" fill="white"/>
<path d="M57.6964 23.4355L51.4807 38.9766H53.9351L55.613 34.5601H61.853L63.5863 38.9766H66.0927L59.7244 23.4355H57.6964ZM61.0834 32.5979H56.3548L58.154 27.9318C58.3551 27.3945 58.5423 26.8918 58.7018 26.3857C58.9271 27.0478 59.1247 27.5782 59.2876 27.963L61.0834 32.5979Z" fill="white"/>
<path d="M74.6032 27.7537C73.9411 27.3551 73.1819 27.1464 72.4088 27.1505C71.7162 27.145 71.0322 27.303 70.412 27.6116C69.909 27.86 69.4424 28.1761 69.0254 28.5511C68.9942 28.2391 68.9422 27.8924 68.8798 27.5111L68.852 27.3655H66.7339V27.5492C66.7894 28.3569 66.8171 29.2825 66.8171 30.2463V43.7281L69.1051 43.4681V38.8055C69.4244 38.915 69.7513 39.002 70.0827 39.0655C70.5392 39.1563 71.0038 39.2014 71.4694 39.2007C72.4695 39.2218 73.4554 38.9622 74.3155 38.4519C75.1419 37.9277 75.7926 37.1682 76.184 36.2713C76.6427 35.2036 76.8649 34.0495 76.8357 32.8879C76.8728 31.7765 76.6631 30.6708 76.2221 29.65C75.8793 28.8733 75.3167 28.214 74.6032 27.7537ZM74.4923 32.9537C74.4923 34.3924 74.208 35.4983 73.6499 36.2401C73.0917 36.982 72.291 37.3356 71.192 37.3356C70.8051 37.3349 70.4196 37.2943 70.0411 37.2143C69.7242 37.1474 69.415 37.0475 69.1189 36.9161V30.4369C69.9856 29.5391 70.9251 29.0849 71.9165 29.0849C72.2753 29.0734 72.6317 29.1486 72.9552 29.3043C73.2789 29.4601 73.5597 29.6916 73.7747 29.9793C74.2565 30.5825 74.4923 31.5879 74.4923 32.9607V32.9537Z" fill="white"/>
<path d="M85.9879 27.7537C85.3258 27.3551 84.5666 27.1464 83.7935 27.1505C83.1009 27.1459 82.4172 27.3038 81.7967 27.6116C81.2937 27.8597 80.8271 28.1759 80.41 28.551C80.3754 28.239 80.3268 27.8924 80.261 27.511L80.2367 27.3654H78.1082V27.5492C78.1636 28.3569 78.1914 29.2825 78.1914 30.2462V43.7281L80.4794 43.4681V38.8054C80.7997 38.915 81.1276 39.002 81.4604 39.0654C81.917 39.1566 82.3815 39.2017 82.8471 39.2006C83.8476 39.2252 84.8352 38.9684 85.6967 38.4588C86.5232 37.9339 87.1749 37.1747 87.5687 36.2782C88.0246 35.2098 88.2454 34.056 88.217 32.8948C88.2558 31.7833 88.0461 30.6771 87.6034 29.6569C87.2626 28.8781 86.701 28.2164 85.9879 27.7537ZM85.877 32.9537C85.877 34.3924 85.5962 35.4982 85.0346 36.2401C84.473 36.982 83.6756 37.3356 82.5767 37.3356C82.1909 37.3352 81.8064 37.2943 81.4292 37.2142C81.111 37.1477 80.8007 37.0478 80.5036 36.9161V30.4369C81.3703 29.539 82.3098 29.0849 83.3012 29.0849C83.66 29.0733 84.0164 29.1486 84.3398 29.3043C84.6633 29.46 84.9444 29.6916 85.1594 29.9793C85.6343 30.5825 85.877 31.5878 85.877 32.9606V32.9537Z" fill="white"/>
<path d="M96.2978 33.4486H100.094V36.6379C99.5932 36.8141 99.0798 36.951 98.5581 37.047C97.9979 37.1503 97.4293 37.2037 96.8594 37.2065C95.8281 37.2463 94.8085 36.9784 93.9301 36.4369C93.1681 35.9311 92.5781 35.2059 92.2383 34.3569C91.8594 33.3949 91.6733 32.3677 91.6906 31.3339C91.6553 30.1843 91.8931 29.0426 92.3839 28.0025C92.8072 27.1297 93.4836 26.4048 94.3253 25.9225C95.2082 25.4464 96.1997 25.2075 97.2026 25.2292C98.5709 25.2593 99.9139 25.6045 101.127 26.238L101.297 26.3246L102.046 24.4284L101.903 24.3556C101.193 24.0096 100.448 23.74 99.6813 23.5513C98.8545 23.3406 98.0041 23.2357 97.1506 23.2393C95.7501 23.2178 94.3658 23.5404 93.1189 24.1788C91.9267 24.8054 90.9463 25.7702 90.3005 26.9521C89.5811 28.3059 89.223 29.8222 89.2605 31.3548C89.23 32.7773 89.5312 34.1875 90.141 35.4732C90.7047 36.6279 91.6019 37.5868 92.7167 38.2257C93.9439 38.8999 95.3278 39.2362 96.7277 39.1998C98.6402 39.1891 100.526 38.7533 102.25 37.9241L102.347 37.8755V31.4657H96.2978V33.4486Z" fill="white"/>
<path d="M113.537 36.6758V32.2177C113.581 31.1921 113.393 30.1698 112.99 29.226C112.671 28.5243 112.12 27.9538 111.43 27.6105C110.676 27.281 109.86 27.1212 109.038 27.1425C108.259 27.1409 107.482 27.2329 106.725 27.4164C106.129 27.5511 105.548 27.7475 104.992 28.0022L104.871 28.0612L105.283 29.8881L105.481 29.7945C105.989 29.5571 106.518 29.3668 107.062 29.226C107.616 29.0742 108.189 28.995 108.764 28.9902C109.1 28.9698 109.438 29.0173 109.756 29.1298C110.074 29.2424 110.366 29.4178 110.615 29.6454C111.045 30.0788 111.267 30.8588 111.267 31.9681V32.0548C110.603 31.9735 109.935 31.9318 109.266 31.93C107.415 31.93 106.063 32.2766 105.252 32.97C104.85 33.301 104.529 33.7201 104.314 34.195C104.099 34.67 103.997 35.188 104.014 35.7086C103.994 36.3756 104.159 37.0357 104.489 37.6153C104.798 38.1291 105.25 38.5423 105.789 38.8044C106.361 39.0744 106.987 39.2096 107.62 39.1996C108.424 39.2082 109.219 39.0252 109.939 38.6657C110.459 38.4081 110.936 38.0712 111.353 37.6673C111.373 38.0656 111.423 38.4619 111.502 38.8529L111.53 38.9881H113.638V38.8044C113.565 37.8545 113.537 37.1438 113.537 36.6758ZM111.26 33.6286V35.8473C110.875 36.2862 110.402 36.6405 109.873 36.8873C109.314 37.1733 108.695 37.3265 108.067 37.3345C107.601 37.3595 107.142 37.2101 106.781 36.915C106.615 36.7428 106.488 36.5372 106.408 36.3115C106.329 36.0862 106.299 35.8463 106.32 35.6081C106.307 35.3228 106.36 35.0385 106.475 34.7775C106.591 34.5165 106.766 34.2857 106.985 34.1036C107.439 33.7257 108.278 33.535 109.485 33.535C110.033 33.5316 110.625 33.5662 111.26 33.6286Z" fill="white"/>
<path d="M119.136 37.1366C118.957 37.1921 118.772 37.2257 118.585 37.2371C118.457 37.2545 118.327 37.2403 118.206 37.1952C118.085 37.1505 117.977 37.077 117.892 36.9806C117.723 36.6689 117.651 36.3143 117.684 35.9614V22.3027L115.406 22.5523V36.2873C115.406 37.251 115.631 37.9825 116.072 38.4609C116.323 38.7122 116.626 38.907 116.959 39.0325C117.292 39.158 117.648 39.2114 118.003 39.1889C118.258 39.1871 118.513 39.1649 118.765 39.123C119.012 39.0887 119.255 39.0294 119.49 38.9462L119.628 38.8977L119.306 37.0881L119.136 37.1366Z" fill="white"/>
<path d="M125.026 37.1366C124.846 37.1921 124.66 37.226 124.471 37.2371C124.343 37.2545 124.213 37.2403 124.093 37.1952C123.972 37.1505 123.864 37.077 123.778 36.9806C123.611 36.6683 123.539 36.314 123.57 35.9614V22.3027L121.292 22.5523V36.2873C121.292 37.251 121.518 37.9825 121.958 38.4609C122.21 38.7122 122.513 38.907 122.847 39.0325C123.18 39.158 123.537 39.2114 123.892 39.1889C124.147 39.1871 124.401 39.1649 124.652 39.123C124.9 39.0887 125.144 39.0294 125.38 38.9462L125.515 38.8977L125.192 37.0881L125.026 37.1366Z" fill="white"/>
<path d="M133.686 27.908C132.913 27.3842 131.994 27.1184 131.061 27.1488C130.113 27.1322 129.18 27.386 128.371 27.8803C127.57 28.3932 126.936 29.1295 126.548 29.9984C126.098 31.0305 125.88 32.1489 125.91 33.2744C125.883 34.3619 126.093 35.4421 126.527 36.4395C126.917 37.2972 127.565 38.0113 128.382 38.4814C129.289 38.9688 130.309 39.208 131.339 39.1747C132.096 39.1844 132.851 39.1054 133.589 38.939C134.226 38.7795 134.843 38.5469 135.426 38.2456L135.561 38.1798L135.003 36.4672L134.823 36.5504C133.847 37.0084 132.781 37.2452 131.703 37.2438C130.58 37.2438 129.709 36.8971 129.12 36.2454C128.531 35.5936 128.243 34.6403 128.208 33.3715H135.728V32.5187C135.736 31.6177 135.567 30.7238 135.232 29.8875C134.916 29.0936 134.379 28.4067 133.686 27.908ZM130.985 28.948C131.307 28.9321 131.628 28.989 131.924 29.1145C132.221 29.2399 132.485 29.4307 132.698 29.6726C133.15 30.2609 133.407 30.9761 133.433 31.7179H128.337C128.43 30.968 128.741 30.2619 129.231 29.6864C129.453 29.4438 129.725 29.2512 130.027 29.1215C130.33 28.9918 130.656 28.9279 130.985 28.9342V28.948Z" fill="white"/>
<path d="M142.866 27.1486C142.361 27.1428 141.863 27.2619 141.416 27.4953C141.003 27.7176 140.634 28.0137 140.328 28.3689C140.103 28.6358 139.892 28.9147 139.697 29.2044C139.697 29.0449 139.673 28.8577 139.659 28.674C139.621 28.2164 139.583 27.842 139.541 27.523L139.52 27.374H137.406V27.5542C137.461 28.8092 137.489 29.759 137.489 30.3796V38.9769H139.777V31.3502C140.176 30.7337 140.669 30.1839 141.24 29.7209C141.685 29.3906 142.228 29.2164 142.782 29.2252C143.051 29.2246 143.319 29.2584 143.58 29.3257L143.763 29.3742L144.093 27.322L143.937 27.2942C143.589 27.194 143.228 27.1449 142.866 27.1486Z" fill="white"/>
<path d="M153.251 27.3633L150.87 34.3313C150.651 34.9865 150.447 35.6244 150.26 36.238C150.118 35.711 149.913 35.042 149.636 34.2446L147.209 27.3702H144.748L149.06 38.7686L148.856 39.2644C148.607 39.965 148.226 40.6112 147.733 41.1676C147.174 41.743 146.498 41.899 145.524 41.7153C145.25 41.6633 145.042 41.6182 144.9 41.5766L144.727 41.5281L144.283 43.355L144.429 43.407C145.049 43.6181 145.701 43.7214 146.356 43.7121C147.1 43.7329 147.836 43.5599 148.492 43.2094C149.112 42.8465 149.635 42.3386 150.017 41.7292C150.511 40.9256 150.918 40.0714 151.23 39.1812L155.65 27.3633H153.251Z" fill="white"/>
<path d="M51.7788 9.12109H56.2473L56.1121 9.99123H52.798V12.4907H55.9353V13.3296H52.798V16.0822H56.282L56.1676 16.9627H51.7788V9.12109Z" fill="white"/>
<path d="M59.4124 12.9622L56.9857 9.12109H58.1609L59.9844 12.1579L61.8876 9.12109H63.0177L60.591 12.9136L63.2084 16.9627H62.0124L59.9982 13.6694L57.9182 16.9627H56.7881L59.4124 12.9622Z" fill="white"/>
<path d="M64.2761 9.12109H66.2487C67.203 9.12109 67.93 9.31637 68.4292 9.70696C68.6823 9.91094 68.883 10.1725 69.0144 10.4698C69.1457 10.7671 69.2043 11.0915 69.1849 11.416C69.1974 11.8913 69.0775 12.3607 68.8383 12.7715C68.6004 13.1616 68.2548 13.4747 67.8433 13.6728C67.3881 13.8906 66.8883 13.9987 66.3839 13.9883C66.0209 13.9879 65.6593 13.946 65.3057 13.8635V16.9835H64.2865L64.2761 9.12109ZM67.67 12.7091C67.8412 12.549 67.9751 12.3534 68.0624 12.136C68.1498 11.9186 68.1886 11.6847 68.1761 11.4507C68.1945 11.2313 68.1581 11.0108 68.0697 10.8092C67.9813 10.6076 67.844 10.4313 67.67 10.2963C67.238 10.0338 66.7354 9.91257 66.2313 9.94963H65.3023V13.0696C65.5948 13.1273 65.8916 13.1586 66.1897 13.1632C66.7225 13.202 67.2505 13.04 67.67 12.7091Z" fill="white"/>
<path d="M70.582 9.12109H71.5978V16.0544H75.002L74.8876 16.9627H70.582V9.12109Z" fill="white"/>
<path d="M76.9851 16.5797C76.4273 16.2564 75.9794 15.7734 75.6989 15.193C75.3904 14.5439 75.2382 13.8315 75.2552 13.113C75.2385 12.3622 75.4015 11.6182 75.7301 10.9429C76.0303 10.3378 76.5067 9.83752 77.096 9.50766C77.7404 9.15625 78.4664 8.98163 79.2003 9.00153C79.8964 8.98843 80.5835 9.16197 81.1901 9.5042C81.7469 9.82632 82.193 10.3098 82.4693 10.8909C82.7765 11.5297 82.9318 12.2309 82.9235 12.9397C82.9418 13.6989 82.7779 14.4514 82.4451 15.1341C82.1369 15.7403 81.6536 16.2403 81.0584 16.5693C80.4212 16.9165 79.704 17.091 78.9784 17.0754C78.2812 17.0935 77.5924 16.9221 76.9851 16.5797ZM80.5869 15.817C81.0095 15.544 81.3406 15.1503 81.5368 14.6869C81.7528 14.1652 81.8588 13.6047 81.8488 13.0402C81.8564 12.4873 81.7635 11.9376 81.5749 11.4178C81.403 10.9585 81.0962 10.5621 80.6944 10.2807C80.2233 9.97788 79.6693 9.82999 79.1101 9.8578C78.5659 9.84116 78.0296 9.99244 77.5744 10.2911C77.1532 10.5739 76.8242 10.9741 76.628 11.4421C76.4144 11.9427 76.3073 12.4821 76.3125 13.0263C76.3045 13.586 76.4058 14.1418 76.6106 14.6626C76.7954 15.1263 77.114 15.5246 77.5258 15.8066C77.9765 16.1 78.5066 16.2477 79.0443 16.2295C79.5882 16.2494 80.1255 16.1057 80.5869 15.817Z" fill="white"/>
<path d="M84.5178 9.12346H86.7885C87.469 9.07992 88.1447 9.2641 88.709 9.64692C88.9382 9.82317 89.1212 10.0526 89.2418 10.3153C89.3628 10.578 89.418 10.8662 89.4024 11.1549C89.4103 11.5396 89.3209 11.9201 89.1424 12.2608C88.9732 12.5636 88.7444 12.8289 88.4698 13.0408C88.2268 13.2319 87.9571 13.3861 87.669 13.4984L90.1234 16.9651H88.9101L86.7053 13.7653H85.537V16.9651H84.5178V9.12346ZM86.4557 12.9368C86.7975 12.9449 87.1362 12.8712 87.4437 12.7219C87.7259 12.5908 87.9626 12.3783 88.1232 12.1117C88.2826 11.8384 88.3641 11.5267 88.3589 11.2104C88.3745 11.0249 88.3436 10.8384 88.2691 10.6678C88.1946 10.4971 88.0791 10.3476 87.9325 10.2328C87.5577 10.0052 87.122 9.89867 86.6845 9.92772H85.5544V12.9333L86.4557 12.9368Z" fill="white"/>
<path d="M91.2886 9.12109H95.7502L95.615 9.99123H92.3008V12.4907H95.4382V13.3296H92.3008V16.0822H95.7848L95.6774 16.9627H91.2886V9.12109Z" fill="white"/>
<path d="M100.822 9.12109H101.841V16.9627H100.822V9.12109Z" fill="white"/>
<path d="M105.529 9.98776H103.065L103.183 9.12109H109.017L108.892 9.98776H106.549V16.9627H105.529V9.98776Z" fill="white"/>
<path d="M114.889 16.5797C114.332 16.2572 113.885 15.7739 113.607 15.193C113.295 14.5448 113.142 13.8319 113.16 13.113C113.143 12.3621 113.306 11.6182 113.634 10.9429C113.936 10.3384 114.411 9.83838 115 9.50766C115.645 9.15625 116.371 8.98163 117.105 9.00153C117.803 8.98298 118.494 9.15177 119.105 9.49033C119.66 9.81353 120.105 10.2968 120.381 10.877C120.686 11.5185 120.836 12.2225 120.821 12.9327C120.839 13.6919 120.675 14.4445 120.342 15.1271C120.034 15.7332 119.551 16.233 118.956 16.5623C118.319 16.9096 117.601 17.0841 116.876 17.0685C116.182 17.0874 115.495 16.9185 114.889 16.5797ZM118.495 15.817C118.912 15.5413 119.238 15.148 119.431 14.6869C119.647 14.1652 119.753 13.6047 119.743 13.0402C119.752 12.4872 119.659 11.9372 119.469 11.4178C119.297 10.9585 118.99 10.5621 118.588 10.2807C118.124 9.98277 117.58 9.83509 117.028 9.8578C116.502 9.83703 115.983 9.97771 115.539 10.2609C115.095 10.5441 114.749 10.9562 114.546 11.4421C114.334 11.9429 114.228 12.4823 114.234 13.0263C114.224 13.5861 114.326 14.1422 114.532 14.6626C114.716 15.1261 115.033 15.5244 115.444 15.8066C115.895 16.1 116.425 16.2477 116.962 16.2295C117.503 16.2462 118.036 16.1027 118.495 15.817Z" fill="white"/>
<path d="M122.423 9.12109H123.584L127.834 15.5934C127.803 15.0075 127.786 14.4771 127.786 13.9952V9.12109H128.756V16.9627H127.643L123.324 10.4003C123.324 10.6638 123.355 10.9758 123.369 11.3328C123.383 11.6899 123.386 12.0262 123.386 12.2966V16.9627H122.423V9.12109Z" fill="white"/>
</svg>
