<svg width="215" height="60" viewBox="0 0 215 60" fill="none" xmlns="http://www.w3.org/2000/svg">
<path d="M76.7344 35.933H78.1406V34.5268H76.7344V35.933ZM76.8097 44.5714H78.0653V37.0379H76.8097V44.5714Z" fill="black"/>
<path d="M84.7229 36.9124C83.5426 36.9124 82.5382 37.4397 81.9857 38.2935L81.8853 37.0379H80.8306V44.5714H82.0862V40.2271C82.0862 38.9213 83.1157 38.0173 84.4215 38.0173C85.5516 38.0173 86.2296 38.7958 86.2296 40.1769V44.5714H87.4852V39.8002C87.4852 38.0675 86.3551 36.9124 84.7229 36.9124Z" fill="black"/>
<path d="M98.1636 44.697C100.524 44.697 102.056 43.1903 102.056 40.8549V35.029H100.75V40.8549C100.75 42.4872 99.7457 43.5418 98.1636 43.5418C96.5816 43.5418 95.5771 42.4872 95.5771 40.8549V35.029H94.2713V40.8549C94.2713 43.1903 95.8031 44.697 98.1636 44.697Z" fill="black"/>
<path d="M109.944 44.5714H111.501L108.111 40.0764L111.35 37.0379H109.743L106.077 40.5285V34.5268H104.821V44.5714H106.077V41.9849L107.207 40.9302L109.944 44.5714Z" fill="black"/>
<path d="M116.752 36.9124C115.597 36.9124 114.593 37.4397 114.04 38.2935L113.94 37.0379H112.885V44.5714H114.141V40.3024C114.141 39.0469 115.145 38.168 116.401 38.168C116.727 38.168 117.003 38.168 117.28 38.1931V36.9626C117.104 36.9375 116.928 36.9124 116.752 36.9124Z" fill="black"/>
<path d="M124.54 43.4665C124.188 43.4665 124.038 43.3158 124.038 42.9643V39.3733C124.038 37.8415 122.958 36.9124 121.225 36.9124C119.944 36.9124 118.865 37.3895 118.036 38.2182L118.814 39.0218C119.442 38.3689 120.296 37.9922 121.175 37.9922C122.179 37.9922 122.857 38.4191 122.857 39.0971C122.857 39.7249 122.38 39.8002 121.1 40.0011C119.618 40.2271 117.86 40.654 117.86 42.462C117.86 43.793 118.865 44.697 120.321 44.697C121.451 44.697 122.456 44.1696 123.008 43.3912C123.083 44.2952 123.46 44.6216 124.389 44.6216C124.565 44.6216 124.766 44.5965 124.816 44.5714V43.4665H124.54ZM120.472 43.6423C119.618 43.6423 119.116 43.2154 119.116 42.4369C119.116 41.332 120.221 41.1562 121.275 40.9805C122.104 40.8549 122.556 40.7796 122.832 40.5787V41.7338C122.832 42.7634 121.727 43.6423 120.472 43.6423Z" fill="black"/>
<path d="M126.753 35.933H128.159V34.5268H126.753V35.933ZM126.828 44.5714H128.084V37.0379H126.828V44.5714Z" fill="black"/>
<path d="M134.741 36.9124C133.561 36.9124 132.556 37.4397 132.004 38.2935L131.904 37.0379H130.849V44.5714H132.104V40.2271C132.104 38.9213 133.134 38.0173 134.44 38.0173C135.57 38.0173 136.248 38.7958 136.248 40.1769V44.5714H137.503V39.8002C137.503 38.0675 136.373 36.9124 134.741 36.9124Z" fill="black"/>
<path d="M140.721 41.2065H146.672C146.697 41.0809 146.697 40.9554 146.697 40.8047C146.697 38.4442 145.291 36.9124 143.131 36.9124C140.972 36.9124 139.44 38.4944 139.44 40.8047C139.44 43.0396 140.821 44.697 143.257 44.697C144.889 44.697 145.919 44.0692 146.471 43.341L145.567 42.5625C145.166 43.1401 144.462 43.5921 143.232 43.5921C141.801 43.5921 140.871 42.6629 140.721 41.2065ZM143.131 37.9922C144.362 37.9922 145.216 38.846 145.392 40.202H140.746C140.947 38.846 141.826 37.9922 143.131 37.9922Z" fill="black"/>
<path d="M86.163 19.1049V16.3795H84.0637V13.433H81.6329V16.3795H79.0548V13.433H76.624V16.3795H74.5247V19.1049H76.624V21.7567H74.5247V24.4821H76.624V27.4286H79.0548V24.4821H81.6329V27.4286H84.0637V24.4821H86.163V21.7567H84.0637V19.1049H86.163ZM81.6329 21.7567H79.0548V19.1049H81.6329V21.7567Z" fill="black"/>
<path d="M97.7646 13.433V18.8103H92.0191V13.433H88.8517V27.4286H92.0191V21.683H97.7646V27.4286H100.932V13.433H97.7646Z" fill="black"/>
<path d="M113.896 24.8873C113.491 24.8873 113.27 24.6663 113.27 24.2612V19.9152C113.27 17.5949 111.576 16.1953 108.703 16.1953C106.714 16.1953 105.057 16.8214 103.731 18.0737L105.499 19.8783C106.346 19.0312 107.377 18.5893 108.519 18.5893C109.771 18.5893 110.508 19.0681 110.508 19.7678C110.508 20.4308 109.513 20.6149 108.261 20.7623C106.199 21.0201 103.51 21.5357 103.51 24.4085C103.51 26.3237 104.947 27.6127 107.12 27.6127C108.74 27.6127 110.176 26.9498 110.95 25.8449C111.171 26.9866 111.907 27.5022 113.27 27.5022C113.823 27.5022 114.117 27.4654 114.338 27.4286V24.8873H113.896ZM107.782 25.2924C106.862 25.2924 106.346 24.8504 106.346 24.1138C106.346 23.0457 107.414 22.8616 108.556 22.6774C109.366 22.5301 109.992 22.4196 110.434 22.1618V23.1194C110.434 24.3348 109.256 25.2924 107.782 25.2924Z" fill="black"/>
<path d="M121.299 27.6127C123.841 27.6127 125.793 26.3973 126.419 24.298L123.62 23.4509C123.214 24.5558 122.404 25.1819 121.262 25.1819C119.642 25.1819 118.611 23.9297 118.611 21.904C118.611 19.8783 119.642 18.6261 121.262 18.6261C122.404 18.6261 123.214 19.2522 123.62 20.3571L126.419 19.51C125.793 17.4107 123.841 16.1953 121.299 16.1953C117.874 16.1953 115.591 18.4788 115.591 21.904C115.591 25.3292 117.874 27.6127 121.299 27.6127Z" fill="black"/>
<path d="M135.847 27.4286H139.309L134.779 20.7254L139.162 16.3795H135.479L131.28 20.7991V12.6964H128.334V27.4286H131.28V24.1507L132.717 22.7511L135.847 27.4286Z" fill="black"/>
<path d="M147.191 27.6127C150.211 27.6127 152.458 26.1027 153.231 23.5245L150.248 22.4933C149.732 24.1138 148.664 24.9609 147.117 24.9609C144.907 24.9609 143.582 23.2299 143.582 20.4308C143.582 17.6317 144.944 15.9007 147.117 15.9007C148.664 15.9007 149.732 16.7478 150.248 18.3683L153.231 17.337C152.421 14.7589 150.211 13.2489 147.191 13.2489C143.103 13.2489 140.34 16.1216 140.34 20.4308C140.34 24.7768 143.066 27.6127 147.191 27.6127Z" fill="black"/>
<path d="M160.192 27.6127C163.654 27.6127 165.974 25.3292 165.974 21.904C165.974 18.442 163.691 16.1953 160.192 16.1953C156.73 16.1953 154.41 18.4788 154.41 21.904C154.41 25.3661 156.693 27.6127 160.192 27.6127ZM160.192 25.1819C158.498 25.1819 157.43 23.9665 157.43 21.904C157.43 19.8415 158.498 18.6261 160.192 18.6261C161.886 18.6261 162.954 19.8415 162.954 21.904C162.954 23.9665 161.886 25.1819 160.192 25.1819Z" fill="black"/>
<path d="M174.666 16.2321C173.083 16.2321 171.757 16.9319 171.02 18.0368L170.873 16.3795H168.221V27.4286H171.168V21.4252C171.168 19.731 172.236 18.9576 173.856 18.9576C174.372 18.9576 174.998 18.9944 175.624 19.0681L175.661 16.3426C175.329 16.269 174.998 16.2321 174.666 16.2321Z" fill="black"/>
<path d="M182.032 27.6127C185.495 27.6127 187.815 25.3292 187.815 21.904C187.815 18.442 185.531 16.1953 182.032 16.1953C178.57 16.1953 176.25 18.4788 176.25 21.904C176.25 25.3661 178.534 27.6127 182.032 27.6127ZM182.032 25.1819C180.338 25.1819 179.27 23.9665 179.27 21.904C179.27 19.8415 180.338 18.6261 182.032 18.6261C183.727 18.6261 184.795 19.8415 184.795 21.904C184.795 23.9665 183.727 25.1819 182.032 25.1819Z" fill="black"/>
<path d="M196.507 16.1953C194.997 16.1953 193.671 16.8582 192.824 17.9263L192.713 16.3795H190.061V27.4286H193.008V21.1306C193.008 19.6574 194.15 18.6261 195.549 18.6261C196.801 18.6261 197.538 19.51 197.538 21.0937V27.4286H200.484V20.4308C200.484 17.8895 198.864 16.1953 196.507 16.1953Z" fill="black"/>
<path d="M212.896 24.8873C212.491 24.8873 212.27 24.6663 212.27 24.2612V19.9152C212.27 17.5949 210.576 16.1953 207.703 16.1953C205.714 16.1953 204.057 16.8214 202.731 18.0737L204.499 19.8783C205.346 19.0312 206.377 18.5893 207.519 18.5893C208.771 18.5893 209.508 19.0681 209.508 19.7678C209.508 20.4308 208.513 20.6149 207.261 20.7623C205.199 21.0201 202.51 21.5357 202.51 24.4085C202.51 26.3237 203.947 27.6127 206.12 27.6127C207.74 27.6127 209.176 26.9498 209.95 25.8449C210.171 26.9866 210.907 27.5022 212.27 27.5022C212.823 27.5022 213.117 27.4654 213.338 27.4286V24.8873H212.896ZM206.782 25.2924C205.862 25.2924 205.346 24.8504 205.346 24.1138C205.346 23.0457 206.414 22.8616 207.556 22.6774C208.366 22.5301 208.992 22.4196 209.434 22.1618V23.1194C209.434 24.3348 208.256 25.2924 206.782 25.2924Z" fill="black"/>
<path fill-rule="evenodd" clip-rule="evenodd" d="M55.227 55.227C50.454 60 43.1461 60 30 60C16.8539 60 9.54595 60 4.77297 55.227C0 50.4541 0 43.1461 0 30C0 16.8539 0 9.54595 4.77297 4.77297C9.54595 0 16.8539 0 30 0C43.1461 0 50.454 0 55.227 4.77297C60 9.54595 60 16.8496 60 30C60 43.1504 60 50.4541 55.227 55.227ZM28.1143 43.44H23.1772L31.9543 16.2857H36.8915L28.1143 43.44Z" fill="#007EFF"/>
</svg>
