<svg width="352" height="203" viewBox="0 0 352 203" fill="none" xmlns="http://www.w3.org/2000/svg">
<rect width="352" height="202.4" fill="#E7EEF3"/>
<g opacity="0.2">
<mask id="mask0" mask-type="alpha" maskUnits="userSpaceOnUse" x="180" y="74" width="55" height="54">
<path d="M207.369 127.919C219.151 127.919 225.701 127.919 229.979 123.641C234.257 119.364 234.257 112.818 234.257 101.032C234.257 89.2455 234.257 82.6996 229.979 78.4218C225.701 74.144 219.151 74.144 207.369 74.144C195.587 74.144 189.037 74.144 184.759 78.4218C180.481 82.6996 180.481 89.2494 180.481 101.032C180.481 112.814 180.481 119.364 184.759 123.641C189.037 127.919 195.587 127.919 207.369 127.919Z" fill="url(#paint0_linear)"/>
</mask>
<g mask="url(#mask0)">
<rect x="179.982" y="73.6353" width="54.8087" height="54.8087" fill="black"/>
</g>
<path d="M217.467 95.7156C215.436 95.7156 213.929 97.2835 213.929 99.2182C213.929 100.798 215.039 102.03 216.445 102.395L213.563 106.81H216.255L218.706 102.701H220.54V106.81H222.787V95.7156H217.467ZM217.776 100.824C216.852 100.824 216.28 100.099 216.28 99.2718C216.28 98.4449 216.804 97.657 217.776 97.657H220.543V100.824H217.776Z" fill="white"/>
<path d="M205.158 95.7156L204.412 97.7691L207.473 97.7516L205.66 104.4C205.143 106.338 207.164 107.803 208.888 106.663L212.809 104.003L211.654 102.306L207.738 105.019L210.378 95.7156H205.158Z" fill="white"/>
<path d="M209.38 94.289C210.238 94.289 210.935 93.6617 210.935 92.8878C210.935 92.1139 210.238 91.4866 209.38 91.4866C208.521 91.4866 207.824 92.1139 207.824 92.8878C207.824 93.6617 208.521 94.289 209.38 94.289Z" fill="white"/>
<path d="M201.446 104.763V93.1375H192.822V99.342C192.822 102.262 191.976 104.066 191.478 104.758H190.456V109.828H192.643V106.831H200.82V109.833H203.007V104.763H201.446ZM194.996 99.2143V95.1998H199.204V104.756H193.772C194.265 103.95 194.996 101.901 194.996 99.2143Z" fill="white"/>
<path d="M122.731 79.2131L122.732 79.2115C124.662 77.2776 127.131 76.2661 130.651 75.7491C134.206 75.2271 138.703 75.2246 144.626 75.2246C150.549 75.2246 155.047 75.227 158.603 75.7479C162.124 76.2637 164.597 77.273 166.531 79.2025C168.466 81.1371 169.477 83.6096 169.994 87.1311C170.516 90.6865 170.519 95.1845 170.519 101.107C170.519 107.03 170.516 111.528 169.994 115.083C169.477 118.605 168.466 121.077 166.531 123.012C164.597 124.946 162.122 125.958 158.599 126.475C155.042 126.997 150.544 127 144.626 127C138.708 127 134.21 126.997 130.655 126.475C127.133 125.958 124.661 124.947 122.732 123.013L122.731 123.012C120.797 121.078 119.785 118.603 119.268 115.08C118.746 111.523 118.744 107.025 118.744 101.107C118.744 95.1893 118.746 90.6914 119.268 87.136C119.785 83.6142 120.797 81.1424 122.731 79.2131Z" stroke="black" stroke-width="2"/>
<path d="M143.472 118.392C141.54 116.919 140.116 114.722 139.657 112.163H133.428V85.2412C136.784 86.9072 139.174 90.6013 139.464 94.4162L140.406 101.974L139.947 101.901C138.933 101.901 138.064 102.843 138.064 103.784C138.064 104.654 138.74 105.402 139.609 105.595L140.744 105.861C142.627 102.312 143.689 98.8347 143.689 95.4061C143.689 92.3156 143.279 89.2492 143.23 86.1104C143.23 84.71 143.762 83.4304 144.631 82.4404C145.5 83.4545 146.031 84.71 146.031 86.1104C146.031 89.2492 145.573 92.3398 145.573 95.4061C145.573 98.8105 146.635 102.312 148.518 105.861L149.653 105.595C150.522 105.402 151.198 104.654 151.198 103.784C151.198 102.843 150.329 101.901 149.315 101.901L148.856 101.974L149.798 94.4162C150.257 90.6013 152.478 86.9072 155.834 85.2412V112.163H149.605C149.146 114.698 147.794 116.992 145.79 118.392C145.331 118.73 144.921 119.14 144.655 119.672C144.341 119.116 143.931 118.73 143.472 118.392ZM136.373 102.867C136.639 101.853 137.387 100.984 138.305 100.452L137.556 94.2231C137.291 92.2915 136.494 90.5531 135.287 89.1285V102.843H136.373V102.867ZM139.536 110.279C139.536 109.338 139.681 108.468 139.874 107.599L139.005 107.406C137.725 106.996 136.736 106.006 136.398 104.726H135.335V110.279H139.536ZM143.665 110.279C143.665 109.144 142.796 108.13 141.661 108.01C141.468 108.734 141.323 109.483 141.323 110.279H143.665ZM143.665 112.163H141.589C141.927 113.635 142.651 114.963 143.665 116.122V112.163ZM146.611 106.344C145.814 104.871 145.065 103.326 144.607 101.732C144.148 103.35 143.4 104.871 142.603 106.344C143.4 106.537 144.076 107.068 144.607 107.672C145.138 107.068 145.814 106.537 146.611 106.344ZM147.89 110.279C147.89 109.483 147.746 108.734 147.552 108.01C146.418 108.155 145.548 109.144 145.548 110.279H147.89ZM147.625 112.163H145.548V116.122C146.562 114.963 147.287 113.635 147.625 112.163ZM153.927 110.279V104.726H152.864C152.526 106.006 151.536 106.996 150.257 107.406L149.387 107.599C149.581 108.468 149.725 109.338 149.725 110.279H153.927ZM153.927 102.867V89.1527C152.719 90.5531 151.85 92.2915 151.657 94.2472L150.909 100.477C151.85 101.008 152.574 101.877 152.84 102.891H153.927V102.867Z" fill="black"/>
</g>
<defs>
<linearGradient id="paint0_linear" x1="180.481" y1="90.6089" x2="234.257" y2="90.6089" gradientUnits="userSpaceOnUse">
<stop stop-color="#13C7FF"/>
<stop offset="1" stop-color="#FFFF36"/>
</linearGradient>
</defs>
</svg>
