<?xml version="1.0" encoding="iso-8859-1"?>
<!-- Generator: Adobe Illustrator 19.0.0, SVG Export Plug-In . SVG Version: 6.00 Build 0)  -->
<svg xmlns="http://www.w3.org/2000/svg" xmlns:xlink="http://www.w3.org/1999/xlink" version="1.1" id="Capa_1" x="0px" y="0px" viewBox="0 0 512.004 512.004" style="enable-background:new 0 0 512.004 512.004;" xml:space="preserve" width="512px" height="512px">
<g>
	<g>
		<path d="M509.502,249.97L262.035,2.504c-3.328-3.337-8.738-3.337-12.066,0L2.502,249.97c-3.337,3.336-3.337,8.73,0,12.066    l247.467,247.467c1.664,1.664,3.849,2.5,6.033,2.5c2.185,0,4.369-0.836,6.033-2.5l247.467-247.467    C512.838,258.7,512.838,253.307,509.502,249.97z M255.994,491.404L20.602,256.003L255.994,20.603l235.4,235.401L255.994,491.404z" fill="#FFFFFF"/>
	</g>
</g>
<g>
	<g>
		<path d="M458.302,249.97L262.035,53.703c-3.328-3.336-8.738-3.336-12.066,0L53.702,249.97c-3.337,3.336-3.337,8.73,0,12.066    l196.267,196.267c1.664,1.664,3.849,2.5,6.033,2.5c2.185,0,4.369-0.836,6.033-2.5l196.267-196.267    C461.638,258.7,461.638,253.307,458.302,249.97z M255.994,440.204L71.802,256.003L255.994,71.803l184.201,184.201L255.994,440.204    z" fill="#FFFFFF"/>
	</g>
</g>
<g>
	<g>
		<path d="M264.501,119.47h-17.007c-9.429,0-17.101,7.68-17.101,17.101v153.532c0,9.429,7.672,17.101,17.101,17.101h17.007    c9.429,0,17.101-7.671,17.092-17.101V136.571C281.594,127.141,273.922,119.47,264.501,119.47z M264.527,290.137l-17.058-0.034    l0.034-153.566l17.032,0.034L264.527,290.137z" fill="#FFFFFF"/>
	</g>
</g>
<g>
	<g>
		<path d="M273.069,332.803h-34.133c-4.71,0-8.533,3.814-8.533,8.533v34.133c0,4.719,3.823,8.533,8.533,8.533h34.133    c4.71,0,8.533-3.814,8.533-8.533v-34.133C281.602,336.618,277.779,332.803,273.069,332.803z M264.535,366.937h-17.067V349.87    h17.067V366.937z" fill="#FFFFFF"/>
	</g>
</g>
<g>
</g>
<g>
</g>
<g>
</g>
<g>
</g>
<g>
</g>
<g>
</g>
<g>
</g>
<g>
</g>
<g>
</g>
<g>
</g>
<g>
</g>
<g>
</g>
<g>
</g>
<g>
</g>
<g>
</g>
</svg>
