<?xml version="1.0" encoding="utf-8"?>
<svg width="36" height="36" viewBox="0 0 36 36" fill="none" xmlns="http://www.w3.org/2000/svg">
    <path fill-rule="evenodd" clip-rule="evenodd" d="M4.28146 4.27824L4.27824 4.28146C3.2586 5.29878 2.6592 6.6423 2.33699 8.83686C2.00489 11.0988 2 13.997 2 17.9967C2 21.9964 2.00489 24.8947 2.337 27.1575C2.65922 29.3528 3.25879 30.6991 4.27985 31.7201L4.28147 31.7218C5.29878 32.7414 6.6423 33.3408 8.83686 33.663C11.0988 33.9951 13.997 34 17.9967 34C21.9964 34 24.8947 33.9951 27.1575 33.663C29.3529 33.3408 30.6991 32.7412 31.7201 31.7201C32.7415 30.6988 33.3409 29.3539 33.663 27.1599C33.9951 24.898 34 21.9998 34 17.9967C34 13.9937 33.9951 11.0955 33.663 8.8336C33.341 6.64018 32.7418 5.29538 31.7209 4.27411C30.6999 3.25577 29.3547 2.6577 27.1605 2.33627C24.8982 2.00487 21.9996 2 17.9967 2C13.9937 2 11.0955 2.00489 8.83451 2.33698C6.6413 2.6591 5.29908 3.2583 4.28146 4.27824ZM33.1344 2.85911C36 5.72475 36 10.1048 36 17.9967C36 25.8887 36 30.2687 33.1344 33.1344C30.2687 36 25.8821 36 17.9967 36C10.1113 36 5.72475 36 2.86564 33.1344C0 30.2687 0 25.8821 0 17.9967C0 10.1113 0 5.72475 2.86564 2.86564C5.72475 0 10.1048 0 17.9967 0C25.8887 0 30.2687 0 33.1344 2.85911Z" fill="url(#paint0_linear)" />
    <path d="M25.1498 13.7383C25.1612 13.9023 25.1612 14.0664 25.1612 14.2305C25.1612 19.2344 21.4493 25 14.665 25C12.5749 25 10.6333 24.3789 9 23.3008C9.29697 23.3359 9.58247 23.3477 9.89086 23.3477C11.6155 23.3477 13.2031 22.75 14.4708 21.7305C12.849 21.6953 11.4898 20.6055 11.0216 19.1055C11.25 19.1406 11.4784 19.164 11.7183 19.164C12.0495 19.164 12.3807 19.1172 12.6891 19.0352C10.9987 18.6836 9.73094 17.1601 9.73094 15.3203V15.2734C10.222 15.5547 10.7932 15.7305 11.3984 15.7539C10.4048 15.0742 9.75379 13.914 9.75379 12.6015C9.75379 11.8984 9.9365 11.2539 10.2563 10.6914C12.0723 12.9883 14.802 14.4882 17.8629 14.6523C17.8058 14.3711 17.7716 14.0781 17.7716 13.7852C17.7716 11.6992 19.4162 10 21.4607 10C22.5228 10 23.4822 10.457 24.1561 11.1953C24.9898 11.0313 25.7893 10.7148 26.4975 10.2813C26.2233 11.1602 25.6409 11.8985 24.8756 12.3672C25.618 12.2852 26.3376 12.0742 27 11.7813C26.4975 12.5312 25.8693 13.1992 25.1498 13.7383Z" fill="url(#paint1_linear)" />
    <defs>
        <linearGradient id="paint0_linear" x1="-10.0015" y1="36.0085" x2="41.7423" y2="44.456" gradientUnits="userSpaceOnUse">
            <stop stop-color="#C3AAB2" />
            <stop offset="0.57659" stop-color="#99EECC" />
            <stop offset="0.766984" stop-color="#80C0C8" />
            <stop offset="1" stop-color="#4B8BFA" />
        </linearGradient>
        <linearGradient id="paint1_linear" x1="7.2" y1="23.6765" x2="35.8032" y2="10.4565" gradientUnits="userSpaceOnUse">
            <stop stop-color="#C3AAB2" />
            <stop offset="0.369792" stop-color="#99EECC" />
            <stop offset="0.682292" stop-color="#80C0C8" />
            <stop offset="1" stop-color="#4B8BFA" />
        </linearGradient>
    </defs>
</svg>
