<?xml version="1.0" encoding="utf-8"?>
<svg width="51" height="51" viewBox="0 0 51 51" fill="none" xmlns="http://www.w3.org/2000/svg">
    <path fill-rule="evenodd" clip-rule="evenodd" d="M31.8198 13.4351C36.8966 18.5119 36.8966 26.743 31.8198 31.8198C26.743 36.8966 18.5118 36.8966 13.435 31.8198C8.35821 26.743 8.35821 18.5119 13.435 13.4351C18.5118 8.35824 26.743 8.35824 31.8198 13.4351ZM34.4881 33.3668C40.1839 27.0867 40.0015 17.3741 33.9411 11.3137C27.6927 5.06534 17.5621 5.06534 11.3137 11.3137C5.06532 17.5621 5.06532 27.6928 11.3137 33.9411C17.0326 39.66 26.0036 40.1447 32.2737 35.395L37.3033 40.4246L39.4246 38.3033L34.4881 33.3668Z" fill="black" />
</svg>