<?xml version="1.0" encoding="utf-8"?>
<svg width="20" height="20" viewBox="0 0 20 20" fill="none" xmlns="http://www.w3.org/2000/svg">
    <path fill-rule="evenodd" clip-rule="evenodd" d="M12.776 13.4601L13.0982 13.0894C13.7675 12.239 14.1667 11.1661 14.1667 9.99992C14.1667 7.23849 11.9281 4.99992 9.16667 4.99992C6.40524 4.99992 4.16667 7.23849 4.16667 9.99992C4.16667 12.7613 6.40524 14.9999 9.16667 14.9999C10.5853 14.9999 11.866 14.4091 12.776 13.4601ZM14.771 13.6119L17.8317 16.2725L16.6777 17.6L13.6308 14.9514C12.449 16.0175 10.8836 16.6666 9.16667 16.6666C5.48477 16.6666 2.5 13.6818 2.5 9.99992C2.5 6.31802 5.48477 3.33325 9.16667 3.33325C12.8486 3.33325 15.8333 6.31802 15.8333 9.99992C15.8333 11.3311 15.4432 12.5711 14.771 13.6119Z" fill="black" />
</svg>